<svg id="SvgjsSvg2618" width="5000" height="3431" xmlns="http://www.w3.org/2000/svg" version="1.1" xmlns:xlink="http://www.w3.org/1999/xlink" xmlns:svgjs="http://svgjs.com/svgjs" viewBox="0 0 326.57501220703125 224.1000099182129"><defs id="SvgjsDefs2619"></defs><g id="SvgjsG2621" transform="rotate(0 163.28750038146973 66.34375)"><svg width="279" viewBox="0 0 4.716610908508301 2.243300676345825" xmlns="http://www.w3.org/2000/svg" version="1.1" xmlns:xlink="http://www.w3.org/1999/xlink" xmlns:svgjs="http://svgjs.com/svgjs" preserveAspectRatio="none" height="132.6875" x="23.787500381469727" y="0" fill="#ff5e3a" stroke="none"><g><svg xmlns="http://www.w3.org/2000/svg" data-name="Layer 1" viewBox="0.14169974625110626 1.378319263458252 4.716610908508301 2.243300676345825" x="0px" y="0px" width="4.716610908508301" height="2.243300676345825"><title>icon</title><g><g><path d="M3.42164,2.26342c-.05826,0-.10057-.09731-.14534-.20029-.056-.12866-.11384-.26176-.20557-.19271a.54319.54319,0,0,0-.11939.15881c-.05159.088-.10494.179-.1884.179-.08144,0-.14531-.16216-.213-.33383a1.26868,1.26868,0,0,0-.15805-.3205c-.18571-.21663-.27712.0273-.37386.28542-.07813.20851-.15893.42411-.29506.42411V2.2513c.13247,0,.21224-.21285.28938-.41868.09867-.26332.19182-.51205.3833-.28886a1.2752,1.2752,0,0,1,.1599.32372c.06658.169.12948.32862.20735.32862.08069,0,.13071-.08529.18365-.17561a.54977.54977,0,0,1,.12146-.1612c.09661-.07276.15609.06415.21362.19645.04376.10056.08506.19556.14.19556Z"></path><path d="M3.4845,2.25882c-.0632,0-.10928-.0891-.15805-.18343-.06111-.11819-.12427-.24035-.2248-.17677a.51739.51739,0,0,0-.13025.14569c-.05875.08429-.11425.16392-.20492.16392-.08843,0-.158-.14857-.23168-.30583a1.1025,1.1025,0,0,0-.17231-.29383c-.203-.19914-.30276.02472-.40836.26166-.08512.191-.17315.38859-.3212.38859V2.24669c.14477,0,.23173-.19519.31586-.384.10745-.24108.20888-.46878.417-.26477A1.10857,1.10857,0,0,1,2.54,1.89468c.07264.155.14123.30142.22645.30142.08828,0,.14284-.0783.20062-.1612a.52337.52337,0,0,1,.13224-.14768c.10478-.0664.16951.05891.23211.18.04774.09231.09284.17949.153.17949Z"></path><path d="M3.553,2.25461c-.06858,0-.11872-.08155-.1718-.16793-.06673-.10851-.1357-.22077-.24577-.16215a.51473.51473,0,0,0-.14209.13363c-.064.07717-.12438.15-.223.15-.096,0-.17184-.136-.25208-.28008a.99164.99164,0,0,0-.18788-.26944c-.22181-.18283-.33068.0225-.4459.24-.09274.175-.18864.356-.34969.356V2.24255c.15809,0,.253-.17905.34471-.35221.11694-.22077.22742-.42935.45375-.24261a.99728.99728,0,0,1,.18986.27186c.07921.14221.154.27654.24722.27654.0965,0,.15607-.07187.21912-.148a.52074.52074,0,0,1,.144-.13522c.11378-.06054.18419.054.25233.16484.0521.08472.10128.16477.16721.16477Z"></path><path d="M3.6276,2.25073c-.07443,0-.129-.07465-.18683-.15371-.07284-.09967-.14818-.20285-.26853-.1488a.53412.53412,0,0,0-.15512.12263.33884.33884,0,0,1-.24257.13734c-.10438,0-.18694-.12461-.27436-.25656a.927.927,0,0,0-.20492-.24711c-.24225-.168-.361.02051-.48675.22007-.101.16034-.2055.32614-.38074.32614V2.23867c.17264,0,.27611-.16424.37618-.32309.12735-.20209.24764-.3929.4938-.22233a.93259.93259,0,0,1,.20684.24917c.08644.13048.16807.25371.26995.25371a.33489.33489,0,0,0,.23919-.13578.539.539,0,0,1,.15684-.12385c.12354-.05523.20023.04954.27438.151.05684.07777.11053.15122.18264.15122Z"></path><path d="M3.709,2.24715c-.08087,0-.1403-.06835-.20324-.14072-.07951-.09152-.16175-.186-.29331-.13658a.57969.57969,0,0,0-.16919.11252.38949.38949,0,0,1-.26408.12581c-.11352,0-.20342-.11415-.29861-.235A.90538.90538,0,0,0,2.257,1.7466c-.26453-.15414-.39414.01869-.53132.20182-.11.14688-.22383.29873-.41455.29873V2.23509c.18844,0,.3013-.15066.41043-.29632.13867-.18509.26963-.35993.53756-.20364a.90943.90943,0,0,1,.22532.22826c.09427.11968.18332.23273.29465.23273a.3857.3857,0,0,0,.26113-.12461A.58372.58372,0,0,1,3.211,1.95806c.13428-.0506.21776.04539.29845.13824.06206.07137.12066.1388.19952.1388Z"></path><path d="M3.79765,2.24391a.33765.33765,0,0,1-.22114-.12882c-.08678-.084-.17657-.17074-.32025-.12535a.65161.65161,0,0,0-.18459.10325.4597.4597,0,0,1-.28751.11521c-.1235,0-.22144-.10454-.32511-.21524A.92208.92208,0,0,0,2.2153,1.7851c-.28871-.14168-.43009.0171-.57979.18515a.60867.60867,0,0,1-.45143.27365V2.23185A.60443.60443,0,0,0,1.63188,1.96c.151-.16948.29362-.32952.58523-.18661a.92817.92817,0,0,1,.24545.20914c.10285.10984.2.21355.3216.21355a.45593.45593,0,0,0,.285-.11434.65544.65544,0,0,1,.186-.10391c.14607-.04635.23689.04162.32472.12661a.33389.33389,0,0,0,.21787.12737Z"></path><path d="M3.89433,2.241a.38755.38755,0,0,1-.2407-.118A.36551.36551,0,0,0,3.304,2.008a.75609.75609,0,0,0-.20133.0947.55461.55461,0,0,1-.31308.10553.56963.56963,0,0,1-.354-.19718.98317.98317,0,0,0-.26584-.19065.51222.51222,0,0,0-.63256.16988.69059.69059,0,0,1-.49168.25072V2.2289A.68641.68641,0,0,0,1.534,1.97956a.5159.5159,0,0,1,.63733-.17094.98621.98621,0,0,1,.26735.19161.56611.56611,0,0,0,.35093.19589.55107.55107,0,0,0,.31089-.1049A.75984.75984,0,0,1,3.303,1.996a.36884.36884,0,0,1,.35346.116.38393.38393,0,0,0,.23786.1169Z"></path><path d="M3.99973,2.23824a.45694.45694,0,0,1-.26206-.10808.44481.44481,0,0,0-.38151-.1055.902.902,0,0,0-.21957.08685.68114.68114,0,0,1-.341.09668.6599.6599,0,0,1-.3855-.18061,1.08638,1.08638,0,0,0-.28994-.17482.62261.62261,0,0,0-.69.15576.8059.8059,0,0,1-.53556.22972V2.22618a.80207.80207,0,0,0,.5328-.22869.62618.62618,0,0,1,.69412-.15659,1.09207,1.09207,0,0,1,.29132.17558.65629.65629,0,0,0,.38281.17965.67807.67807,0,0,0,.33916-.09622.906.906,0,0,1,.22058-.08724.44877.44877,0,0,1,.3848.10623.4535.4535,0,0,0,.25963.10729Z"></path><path d="M4.11457,2.23572a.55108.55108,0,0,1-.28533-.099A.5504.5504,0,0,0,3.413,2.04a1.09905,1.09905,0,0,0-.23949.07962.84874.84874,0,0,1-.37145.08853.78409.78409,0,0,1-.41983-.16547A1.24565,1.24565,0,0,0,2.066,1.88238a.76823.76823,0,0,0-.75262.14284.96313.96313,0,0,1-.58347.2105V2.22366A.95976.95976,0,0,0,1.311,2.014a.77191.77191,0,0,1,.75612-.1435,1.251,1.251,0,0,1,.31741.1609.78072.78072,0,0,0,.41753.16477.84536.84536,0,0,0,.36987-.0882A1.1027,1.1027,0,0,1,3.41226,2.028a.55435.55435,0,0,1,.4191.09725.5476.5476,0,0,0,.28322.09838Z"></path><path d="M4.23974,2.23344A.67693.67693,0,0,1,3.929,2.14275a.68918.68918,0,0,0-.45405-.0888,1.36284,1.36284,0,0,0-.261.07306,1.06841,1.06841,0,0,1-.40481.08118.95149.95149,0,0,1-.45738-.15165,1.47272,1.47272,0,0,0-.34481-.147.95924.95924,0,0,0-.82074.131,1.17447,1.17447,0,0,1-.63572.19287V2.22138a1.17106,1.17106,0,0,0,.63367-.19231.96272.96272,0,0,1,.82373-.13148,1.47316,1.47316,0,0,1,.34582.14741.94837.94837,0,0,0,.45543.15112,1.06506,1.06506,0,0,0,.40345-.08094,1.36459,1.36459,0,0,1,.2618-.07323.69218.69218,0,0,1,.45644.08916.67335.67335,0,0,0,.309.09026Z"></path><path d="M4.37623,2.23135a.84259.84259,0,0,1-.33853-.0831.87069.87069,0,0,0-.49522-.08141,1.70755,1.70755,0,0,0-.28471.067,1.35505,1.35505,0,0,1-.441.07439,1.17485,1.17485,0,0,1-.49835-.139,1.77819,1.77819,0,0,0-.37588-.13479,1.20887,1.20887,0,0,0-.895.12015,1.45422,1.45422,0,0,1-.69268.17677V2.21929A1.451,1.451,0,0,0,1.04579,2.043a1.21265,1.21265,0,0,1,.89754-.12051,1.782,1.782,0,0,1,.37676.13512,1.17225,1.17225,0,0,0,.49669.13857,1.35289,1.35289,0,0,0,.43985-.07419A1.70751,1.70751,0,0,1,3.542,2.05485a.87258.87258,0,0,1,.49725.08167.83935.83935,0,0,0,.337.08277Z"></path><path d="M4.52493,2.22936a1.06139,1.06139,0,0,1-.36876-.07611,1.1083,1.1083,0,0,0-.54-.07462,2.16365,2.16365,0,0,0-.31053.0614,1.72964,1.72964,0,0,1-.48041.06816,1.46936,1.46936,0,0,1-.543-.12733,2.188,2.188,0,0,0-.40987-.12359,1.53655,1.53655,0,0,0-.97587.11014,1.823,1.823,0,0,1-.75479.162V2.2173A1.81929,1.81929,0,0,0,.895,2.05564a1.53911,1.53911,0,0,1,.978-.11037,2.18969,2.18969,0,0,1,.41064.12382,1.46614,1.46614,0,0,0,.54154.127,1.72671,1.72671,0,0,0,.47946-.068,2.162,2.162,0,0,1,.31106-.06147,1.10854,1.10854,0,0,1,.54174.07478,1.05789,1.05789,0,0,0,.36747.07588Z"></path></g><g><path d="M2.59284,3.62162l-.00834-.001c-.10444-.02462-.171-.52239-.24152-1.04935-.07712-.5765-.15688-1.17261-.28667-1.17261V1.37838c.13882,0,.21964.60406.29779,1.18822.06649.49711.13525,1.01115.23192,1.03394.04029.00938.086-.06859.1361-.23207a7.454,7.454,0,0,0,.15846-.9c.07947-.56507.13742-.93547.21568-.93547.08607,0,.13724.24453.19141.50337a2.38686,2.38686,0,0,0,.11939.44515c.019.04.03633.05623.053.0498.05854-.02273.10543-.32465.14676-.591.04487-.289.08725-.562.14818-.562v.02028c-.05225,0-.09541.27809-.13716.547-.04632.29834-.09007.58011-.15536.60546-.02093.008-.04249-.011-.06413-.05653A2.40117,2.40117,0,0,1,3.277,2.04348c-.05043-.241-.10259-.49015-.1807-.49015-.0752,0-.141.46772-.2046.92006a7.45891,7.45891,0,0,1-.15951.90475C2.68207,3.5417,2.6364,3.62162,2.59284,3.62162Z"></path><path d="M2.55115,3.44925l-.01194-.00159c-.11171-.02976-.18369-.48233-.2599-.96145-.08405-.52835-.171-1.0747-.313-1.0747V1.3913c.15071,0,.23881.55384.324,1.08941.07187.45188.14621.9191.25063.94694.04492.012.09607-.05944.15174-.21236a5.85656,5.85656,0,0,0,.17261-.82451c.07378-.44108.14346-.8577.23454-.8577.09317,0,.149.22408.208.46132a1.91974,1.91974,0,0,0,.13006.40778c.02175.0385.04171.05318.06111.04506.063-.02674.11126-.288.1579-.54068.04892-.265.09512-.51527.161-.51527v.02021c-.05755,0-.10461.25487-.15013.50135-.04761.25795-.09685.52471-.16609.55407-.02321.00981-.04739-.00709-.07183-.05043a1.93171,1.93171,0,0,1-.13241-.41391c-.05752-.231-.11182-.4493-.19756-.4493-.08256,0-.15426.42869-.2236.84326a5.8653,5.8653,0,0,1-.174.82974C2.64775,3.376,2.59817,3.44925,2.55115,3.44925Z"></path><path d="M2.50567,3.29131l-.0168-.00249c-.11911-.03529-.19677-.44582-.279-.8805-.0916-.48422-.18632-.985-.34176-.985V1.40314c.16366,0,.25971.50774.35258.99876.0811.42875.15768.83368.27.867.05135.01518.10677-.04831.16986-.194a4.64043,4.64043,0,0,0,.188-.75539c.08043-.4044.15637-.78637.255-.78637.101,0,.16175.20533.22607.42276a1.56747,1.56747,0,0,0,.14168.37355c.02506.03737.04819.05063.07075.04036.06753-.03061.11926-.26633.1693-.49426.05333-.24294.10367-.47235.17483-.47235v.02021c-.06335,0-.11462.23359-.1642.45947-.05107.2327-.10392.47335-.17713.50652-.026.01186-.0532-.00315-.08089-.04443a1.57976,1.57976,0,0,1-.14443-.37965c-.06269-.21186-.12191-.412-.216-.412-.09059,0-.16872.3929-.24427.77288a4.64826,4.64826,0,0,1-.18974.761C2.61034,3.22417,2.55648,3.29131,2.50567,3.29131Z"></path><path d="M2.4561,3.14648a.07517.07517,0,0,1-.02326-.00371c-.12653-.04089-.21009-.41242-.29856-.80575-.09984-.44386-.20309-.90287-.37314-.90287V1.41394c.17779,0,.28247.46547.38371.91559.08727.388.16969.75446.29.79332.05755.01852.12-.03926.19077-.1768a3.70859,3.70859,0,0,0,.20486-.69217c.08764-.37067.17046-.7208.27738-.7208.10947,0,.17565.18814.24577.38737a1.30751,1.30751,0,0,0,.15435.34231c.029.03631.05587.04791.082.03555.072-.0341.12741-.24625.181-.45142.05812-.22266.113-.433.18993-.433v.02021c-.06963,0-.12554.21414-.17958.42123-.05466.2094-.11118.42594-.18836.46248-.0293.01385-.0601.00083-.09157-.0386a1.31971,1.31971,0,0,1-.15745-.3481c-.06837-.19433-.133-.37786-.23609-.37786-.09936,0-.18072.3441-.26688.70841a3.72043,3.72043,0,0,1-.20694.698C2.56956,3.085,2.51107,3.14648,2.4561,3.14648Z"></path><path d="M2.402,3.01371a.09611.09611,0,0,1-.0315-.00537c-.134-.04612-.2237-.38147-.31865-.73653-.10883-.40692-.22136-.82768-.40735-.82768V1.42391c.19318,0,.3073.42663.41763.83925.0937.35029.1822.68117.31053.72533.06477.02223.13507-.03018.21488-.16053a3.00886,3.00886,0,0,0,.22318-.63422c.09556-.33976.18578-.66066.30175-.66066.11874,0,.19419.18038.26718.3548A1.11757,1.11757,0,0,0,3.548,2.2017c.03352.03535.06462.04543.095.03078.07658-.03694.13572-.22753.19294-.41182.06331-.204.12314-.39674.20641-.39674v.02021c-.07654,0-.13477.18763-.19643.38627-.05834.188-.1187.3824-.19993.4216-.033.01594-.068.0049-.10384-.03294a1.13009,1.13009,0,0,1-.17162-.31911c-.07458-.17826-.145-.34665-.258-.34665-.10891,0-.19763.31547-.29155.64946a3.019,3.019,0,0,1-.22566.64C2.52516,2.95738,2.46159,3.01371,2.402,3.01371Z"></path><path d="M2.34308,2.892a.12274.12274,0,0,1-.04167-.00736c-.14153-.05063-.23762-.35274-.33935-.67262-.11864-.37309-.24134-.75887-.44465-.75887V1.433c.21,0,.33432.391.45459.76917.10038.3157.19524.6139.33165.66271.073.02607.1523-.02134.2424-.14513a2.487,2.487,0,0,0,.24319-.58117c.10412-.31139.20245-.60549.32825-.60549.12884,0,.211.16517.2905.32488a.9862.9862,0,0,0,.18352.28774c.14034.12449.22923-.11633.31519-.34926.069-.18691.13413-.36345.22432-.36345V1.4532c-.084,0-.14751.1721-.21477.3543-.08869.24029-.1804.48869-.32984.35629a.99848.99848,0,0,1-.187-.29244c-.08138-.16355-.15824-.31806-.28194-.31806-.11932,0-.216.28929-.31846.59559a2.49714,2.49714,0,0,1-.246.58683C2.4768,2.84045,2.40768,2.892,2.34308,2.892Z"></path><path d="M2.27779,2.78134c-.17767,0-.29319-.30553-.41359-.62391-.12937-.34214-.26315-.69588-.48537-.69588V1.44134c.22829,0,.36379.35831.49484.70483.16224.42908.31551.83428.62709.47438a2.10144,2.10144,0,0,0,.26509-.53272c.11343-.28525.22058-.55473.3571-.55473.13993,0,.2294.15126.31592.29751a.90424.90424,0,0,0,.20021.26391c.15388.11478.251-.10643.34481-.3203.07512-.17117.14607-.33287.24379-.33287v.02021c-.09214,0-.16143.15789-.23478.32508-.09652.21991-.19636.44721-.35822.3265A.91443.91443,0,0,1,3.431,1.84521c-.08882-.15013-.1727-.29191-.30807-.29191-.13062,0-.23612.26531-.3478.54618a2.11144,2.11144,0,0,1-.26817.538A.33005.33005,0,0,1,2.27779,2.78134Z"></path><path d="M2.20784,2.67882c-.19333,0-.31915-.27985-.45027-.57146-.14108-.31374-.287-.63819-.52977-.63819V1.449c.24827,0,.39589.32833.53868.64581.17706.39383.3443.76579.68489.435a1.82958,1.82958,0,0,0,.289-.4884c.12356-.26136.24027-.50824.38853-.50824.152,0,.24509.13231.34363.27236a.86254.86254,0,0,0,.21843.24214c.16859.1057.27458-.09738.3771-.2938.08179-.15676.15906-.30483.265-.30483v.02021c-.101,0-.17659.14489-.25666.29834-.105.20122-.21357.40921-.38924.2991a.87189.87189,0,0,1-.22176-.24539c-.09693-.1378-.18847-.26792-.33651-.26792-.143,0-.258.24334-.37979.501a1.83968,1.83968,0,0,1-.29226.49313A.37554.37554,0,0,1,2.20784,2.67882Z"></path><path d="M2.13156,2.58486c-.21039,0-.3474-.25626-.49021-.52335-.15387-.28777-.313-.58531-.57815-.58531V1.456c.27006,0,.43088.30079.58641.59164.19324.36142.37577.7029.74786.39877a1.64757,1.64757,0,0,0,.31513-.44777c.13458-.23939.26169-.46553.42275-.46553.16528,0,.26658.12114.37385.24937a.8602.8602,0,0,0,.23837.22213c.18451.09735.3003-.08916.41221-.26954.089-.1435.17313-.27905.28813-.27905V1.4762c-.11059,0-.19311.133-.28049.27378-.11425.18413-.23235.37448-.4231.274a.86871.86871,0,0,1-.24147-.22475c-.10578-.12647-.2057-.24589-.36749-.24589-.15633,0-.28183.22322-.41469.45957a1.657,1.657,0,0,1-.31842.45188A.43973.43973,0,0,1,2.13156,2.58486Z"></path><path d="M2.04843,2.49878c-.22906,0-.37824-.23469-.53375-.47928-.16781-.26394-.34135-.5369-.6309-.5369V1.46244c.29387,0,.469.27551.63845.542.21088.3317.41.64505.81644.36573a1.54452,1.54452,0,0,0,.34367-.41066c.14658-.21928.285-.42637.46008-.42637a.56961.56961,0,0,1,.40685.22829.89564.89564,0,0,0,.26008.20384c.20187.08949.32821-.08174.4504-.24734.09693-.13138.18849-.25546.31332-.25546v.02015c-.121,0-.211.1221-.30641.25135-.12434.16849-.25294.3428-.46008.25086A.90282.90282,0,0,1,3.54366,1.779a.56292.56292,0,0,0-.40124-.22571c-.17091,0-.30781.20483-.45274.42166a1.55355,1.55355,0,0,1-.3469.414A.52714.52714,0,0,1,2.04843,2.49878Z"></path><path d="M1.95776,2.41991c-.24933,0-.41182-.21494-.58117-.439-.183-.24211-.37231-.4925-.68838-.4925V1.46831c.31984,0,.51065.25241.69518.49651.23011.30433.44745.59177.89111.33545a1.51055,1.51055,0,0,0,.37485-.37663c.15964-.20083.31042-.39052.50076-.39052a.65568.65568,0,0,1,.44286.209.97193.97193,0,0,0,.28376.187c.22069.08237.3586-.07488.492-.227.10551-.12028.20518-.23389.34081-.23389v.02014c-.1323,0-.23059.11206-.33466.23071-.13531.15424-.27527.31378-.50047.22975a.9792.9792,0,0,1-.28632-.18853.64913.64913,0,0,0-.438-.20712c-.18672,0-.33606.1879-.49419.38681a1.518,1.518,0,0,1-.3779.37935A.644.644,0,0,1,1.95776,2.41991Z"></path><path d="M1.85894,2.34765c-.2715,0-.44846-.19685-.6329-.402a1.0151,1.0151,0,0,0-.751-.45175V1.47374a1.02211,1.02211,0,0,1,.75707.45483c.251.27925.48817.543.9724.30768a1.54393,1.54393,0,0,0,.40886-.34546c.17386-.18393.33808-.35768.54516-.35768a.77469.77469,0,0,1,.48212.19145,1.09456,1.09456,0,0,0,.3096.17154c.24106.07568.3916-.06866.53718-.20822a.56717.56717,0,0,1,.37088-.21414v.02015a.5611.5611,0,0,0-.36547.21172c-.14731.14118-.29966.2871-.54457.21037a1.10251,1.10251,0,0,1-.31184-.17269.76858.76858,0,0,0-.47789-.19c-.20395,0-.36686.17236-.53934.35486a1.55117,1.55117,0,0,1-.41169.34754A.7994.7994,0,0,1,1.85894,2.34765Z"></path></g></g></svg></g><defs id="SvgjsDefs2620"></defs></svg></g><g id="SvgjsG2623" transform="rotate(0 163.28125 177.5125093460083)"><svg xmlns="http://www.w3.org/2000/svg" xmlns:xlink="http://www.w3.org/1999/xlink" width="128.5625" viewBox="1.8300000429153442 7.019999980926514 128.5699920654297 24.85999870300293" overflow="visible" style="overflow: visible;" transform="" version="1.1" xmlns:svgjs="http://svgjs.com/svgjs" preserveAspectRatio="none" height="24.850000381469727" x="99" y="165.08750915527344" fill="#000000" stroke="none"><path stroke="none" fill="#2c365d" d="M22.03 7.37L22.03 31.54L16.24 31.54L16.24 21.45L7.65 21.45L7.65 31.54L1.83 31.54L1.83 7.37L7.65 7.37L7.65 16.97L16.24 16.97L16.24 7.37L22.03 7.37ZM38.67 31.54L30.72 31.54L30.72 7.37L38.50 7.37L38.50 7.37Q41.71 7.37 44.26 8.82L44.26 8.82L44.26 8.82Q46.82 10.28 48.26 12.92L48.26 12.92L48.26 12.92Q49.69 15.57 49.71 18.86L49.71 18.86L49.71 19.97L49.71 19.97Q49.71 23.29 48.31 25.92L48.31 25.92L48.31 25.92Q46.90 28.55 44.35 30.04L44.35 30.04L44.35 30.04Q41.81 31.53 38.67 31.54L38.67 31.54ZM38.50 11.87L36.54 11.87L36.54 27.06L38.57 27.06L38.57 27.06Q41.08 27.06 42.42 25.28L42.42 25.28L42.42 25.28Q43.76 23.49 43.76 19.97L43.76 19.97L43.76 18.93L43.76 18.93Q43.76 15.42 42.42 13.65L42.42 13.65L42.42 13.65Q41.08 11.87 38.50 11.87L38.50 11.87ZM75.29 10.36L63.86 27.06L75.41 27.06L75.41 31.54L56.58 31.54L56.58 28.47L68.11 11.87L56.52 11.87L56.52 7.37L75.29 7.37L75.29 10.36ZM96.38 23.36L102.17 23.36L102.17 23.36Q102.06 25.88 100.81 27.82L100.81 27.82L100.81 27.82Q99.57 29.75 97.32 30.81L97.32 30.81L97.32 30.81Q95.07 31.88 92.18 31.88L92.18 31.88L92.18 31.88Q87.42 31.88 84.68 28.77L84.68 28.77L84.68 28.77Q81.94 25.67 81.94 20.00L81.94 20.00L81.94 18.81L81.94 18.81Q81.94 15.26 83.17 12.59L83.17 12.59L83.17 12.59Q84.41 9.93 86.74 8.48L86.74 8.48L86.74 8.48Q89.06 7.02 92.11 7.02L92.11 7.02L92.11 7.02Q96.51 7.02 99.19 9.34L99.19 9.34L99.19 9.34Q101.86 11.65 102.22 15.72L102.22 15.72L96.41 15.72L96.41 15.72Q96.35 13.51 95.30 12.55L95.30 12.55L95.30 12.55Q94.26 11.59 92.11 11.59L92.11 11.59L92.11 11.59Q89.94 11.59 88.93 13.21L88.93 13.21L88.93 13.21Q87.91 14.84 87.86 18.41L87.86 18.41L87.86 20.12L87.86 20.12Q87.86 23.99 88.84 25.65L88.84 25.65L88.84 25.65Q89.81 27.31 92.18 27.31L92.18 27.31L92.18 27.31Q94.19 27.31 95.25 26.36L95.25 26.36L95.25 26.36Q96.31 25.42 96.38 23.36L96.38 23.36ZM130.40 18.84L130.40 19.96L130.40 19.96Q130.40 23.49 129.09 26.21L129.09 26.21L129.09 26.21Q127.78 28.94 125.36 30.41L125.36 30.41L125.36 30.41Q122.95 31.88 119.86 31.88L119.86 31.88L119.86 31.88Q116.77 31.88 114.38 30.46L114.38 30.46L114.38 30.46Q111.99 29.04 110.65 26.40L110.65 26.40L110.65 26.40Q109.32 23.76 109.25 20.34L109.25 20.34L109.25 18.98L109.25 18.98Q109.25 15.42 110.55 12.71L110.55 12.71L110.55 12.71Q111.86 9.99 114.29 8.52L114.29 8.52L114.29 8.52Q116.72 7.04 119.83 7.04L119.83 7.04L119.83 7.04Q122.90 7.04 125.30 8.50L125.30 8.50L125.30 8.50Q127.71 9.96 129.05 12.66L129.05 12.66L129.05 12.66Q130.38 15.36 130.40 18.84L130.40 18.84ZM124.47 20.05L124.47 18.94L124.47 18.94Q124.47 15.34 123.27 13.47L123.27 13.47L123.27 13.47Q122.07 11.60 119.83 11.60L119.83 11.60L119.83 11.60Q115.44 11.60 115.19 18.18L115.19 18.18L115.18 19.96L115.18 19.96Q115.18 23.51 116.36 25.42L116.36 25.42L116.36 25.42Q117.53 27.33 119.86 27.33L119.86 27.33L119.86 27.33Q122.07 27.33 123.26 25.45L123.26 25.45L123.26 25.45Q124.46 23.57 124.47 20.05L124.47 20.05Z" transform="rotate(0 66.11499607563019 19.44999933242798)"></path><defs id="SvgjsDefs2622"></defs></svg></g><g id="SvgjsG2625" transform="rotate(0 163.28750610351562 214.01875925064087)"><svg xmlns="http://www.w3.org/2000/svg" xmlns:xlink="http://www.w3.org/1999/xlink" width="326.57501220703125" viewBox="1.440000057220459 2.8400001525878906 326.5799865722656 15.369998931884766" overflow="visible" style="overflow: visible;" transform="" version="1.1" xmlns:svgjs="http://svgjs.com/svgjs" preserveAspectRatio="none" height="15.362500190734863" x="0" y="206.33750915527344" fill="#000000" stroke="none"><path stroke="none" fill="#2c365d" d="M1.44 3.47L2.71 3.47L6.91 13.51L11.12 3.47L12.40 3.47L12.40 14.84L11.44 14.84L11.44 9.89L11.52 4.81L7.28 14.84L6.54 14.84L2.32 4.85L2.40 9.86L2.40 14.84L1.44 14.84L1.44 3.47ZM23.40 14.84L22.40 14.84L22.40 14.84Q22.26 14.45 22.22 13.66L22.22 13.66L22.22 13.66Q21.73 14.30 20.96 14.65L20.96 14.65L20.96 14.65Q20.20 15 19.35 15L19.35 15L19.35 15Q18.13 15 17.38 14.32L17.38 14.32L17.38 14.32Q16.63 13.64 16.63 12.60L16.63 12.60L16.63 12.60Q16.63 11.37 17.65 10.65L17.65 10.65L17.65 10.65Q18.68 9.93 20.52 9.93L20.52 9.93L22.21 9.93L22.21 8.97L22.21 8.97Q22.21 8.06 21.65 7.54L21.65 7.54L21.65 7.54Q21.09 7.02 20.02 7.02L20.02 7.02L20.02 7.02Q19.05 7.02 18.41 7.52L18.41 7.52L18.41 7.52Q17.77 8.02 17.77 8.73L17.77 8.73L16.83 8.72L16.83 8.72Q16.83 7.71 17.77 6.97L17.77 6.97L17.77 6.97Q18.70 6.23 20.07 6.23L20.07 6.23L20.07 6.23Q21.48 6.23 22.30 6.94L22.30 6.94L22.30 6.94Q23.12 7.65 23.14 8.91L23.14 8.91L23.14 12.91L23.14 12.91Q23.14 14.14 23.40 14.75L23.40 14.75L23.40 14.84ZM19.46 14.17L19.46 14.17L19.46 14.17Q20.40 14.17 21.14 13.72L21.14 13.72L21.14 13.72Q21.88 13.27 22.21 12.51L22.21 12.51L22.21 10.65L20.54 10.65L20.54 10.65Q19.14 10.66 18.35 11.16L18.35 11.16L18.35 11.16Q17.56 11.66 17.56 12.52L17.56 12.52L17.56 12.52Q17.56 13.23 18.09 13.70L18.09 13.70L18.09 13.70Q18.62 14.17 19.46 14.17ZM30.76 14.21L30.76 14.21L30.76 14.21Q31.73 14.21 32.39 13.66L32.39 13.66L32.39 13.66Q33.05 13.11 33.11 12.23L33.11 12.23L34.01 12.23L34.01 12.23Q33.97 13.01 33.52 13.64L33.52 13.64L33.52 13.64Q33.08 14.28 32.34 14.64L32.34 14.64L32.34 14.64Q31.60 15 30.76 15L30.76 15L30.76 15Q29.09 15 28.12 13.84L28.12 13.84L28.12 13.84Q27.15 12.69 27.15 10.73L27.15 10.73L27.15 10.45L27.15 10.45Q27.15 9.20 27.59 8.24L27.59 8.24L27.59 8.24Q28.02 7.28 28.84 6.76L28.84 6.76L28.84 6.76Q29.66 6.23 30.75 6.23L30.75 6.23L30.75 6.23Q32.14 6.23 33.04 7.06L33.04 7.06L33.04 7.06Q33.95 7.89 34.01 9.24L34.01 9.24L33.11 9.24L33.11 9.24Q33.05 8.25 32.39 7.64L32.39 7.64L32.39 7.64Q31.74 7.03 30.75 7.03L30.75 7.03L30.75 7.03Q29.48 7.03 28.79 7.95L28.79 7.95L28.79 7.95Q28.09 8.86 28.09 10.51L28.09 10.51L28.09 10.78L28.09 10.78Q28.09 12.40 28.79 13.30L28.79 13.30L28.79 13.30Q29.48 14.21 30.76 14.21ZM38.80 2.84L38.80 7.82L38.80 7.82Q39.27 7.06 39.98 6.65L39.98 6.65L39.98 6.65Q40.70 6.23 41.55 6.23L41.55 6.23L41.55 6.23Q42.91 6.23 43.58 7L43.58 7L43.58 7Q44.24 7.77 44.25 9.30L44.25 9.30L44.25 14.84L43.32 14.84L43.32 9.29L43.32 9.29Q43.31 8.16 42.84 7.60L42.84 7.60L42.84 7.60Q42.37 7.05 41.33 7.05L41.33 7.05L41.33 7.05Q40.46 7.05 39.79 7.59L39.79 7.59L39.79 7.59Q39.13 8.13 38.80 9.05L38.80 9.05L38.80 14.84L37.88 14.84L37.88 2.84L38.80 2.84ZM49.70 6.39L49.70 14.84L48.77 14.84L48.77 6.39L49.70 6.39ZM48.60 3.95L48.60 3.95L48.60 3.95Q48.60 3.68 48.77 3.50L48.77 3.50L48.77 3.50Q48.95 3.31 49.24 3.31L49.24 3.31L49.24 3.31Q49.54 3.31 49.71 3.50L49.71 3.50L49.71 3.50Q49.89 3.68 49.89 3.95L49.89 3.95L49.89 3.95Q49.89 4.21 49.71 4.39L49.71 4.39L49.71 4.39Q49.54 4.57 49.24 4.57L49.24 4.57L49.24 4.57Q48.95 4.57 48.77 4.39L48.77 4.39L48.77 4.39Q48.60 4.21 48.60 3.95ZM54.24 6.39L55.13 6.39L55.16 7.84L55.16 7.84Q55.64 7.05 56.35 6.64L56.35 6.64L56.35 6.64Q57.06 6.23 57.92 6.23L57.92 6.23L57.92 6.23Q59.28 6.23 59.95 7L59.95 7L59.95 7Q60.61 7.77 60.62 9.30L60.62 9.30L60.62 14.84L59.69 14.84L59.69 9.29L59.69 9.29Q59.68 8.16 59.21 7.60L59.21 7.60L59.21 7.60Q58.73 7.05 57.70 7.05L57.70 7.05L57.70 7.05Q56.83 7.05 56.16 7.59L56.16 7.59L56.16 7.59Q55.49 8.13 55.17 9.05L55.17 9.05L55.17 14.84L54.24 14.84L54.24 6.39ZM68.30 15L68.30 15L68.30 15Q67.23 15 66.36 14.47L66.36 14.47L66.36 14.47Q65.48 13.94 65 12.99L65 12.99L65 12.99Q64.52 12.04 64.52 10.86L64.52 10.86L64.52 10.52L64.52 10.52Q64.52 9.30 64.99 8.33L64.99 8.33L64.99 8.33Q65.46 7.35 66.30 6.79L66.30 6.79L66.30 6.79Q67.15 6.23 68.13 6.23L68.13 6.23L68.13 6.23Q69.67 6.23 70.57 7.29L70.57 7.29L70.57 7.29Q71.48 8.34 71.48 10.16L71.48 10.16L71.48 10.68L65.45 10.68L65.45 10.86L65.45 10.86Q65.45 12.30 66.27 13.25L66.27 13.25L66.27 13.25Q67.09 14.21 68.34 14.21L68.34 14.21L68.34 14.21Q69.09 14.21 69.67 13.94L69.67 13.94L69.67 13.94Q70.24 13.66 70.71 13.06L70.71 13.06L71.30 13.51L71.30 13.51Q70.27 15 68.30 15ZM68.13 7.03L68.13 7.03L68.13 7.03Q67.08 7.03 66.36 7.80L66.36 7.80L66.36 7.80Q65.63 8.58 65.48 9.88L65.48 9.88L70.55 9.88L70.55 9.78L70.55 9.78Q70.51 8.56 69.85 7.80L69.85 7.80L69.85 7.80Q69.20 7.03 68.13 7.03ZM82.38 3.47L82.38 14.03L87.99 14.03L87.99 14.84L81.41 14.84L81.41 3.47L82.38 3.47ZM94.89 15L94.89 15L94.89 15Q93.81 15 92.94 14.47L92.94 14.47L92.94 14.47Q92.07 13.94 91.59 12.99L91.59 12.99L91.59 12.99Q91.10 12.04 91.10 10.86L91.10 10.86L91.10 10.52L91.10 10.52Q91.10 9.30 91.57 8.33L91.57 8.33L91.57 8.33Q92.05 7.35 92.89 6.79L92.89 6.79L92.89 6.79Q93.73 6.23 94.72 6.23L94.72 6.23L94.72 6.23Q96.26 6.23 97.16 7.29L97.16 7.29L97.16 7.29Q98.06 8.34 98.06 10.16L98.06 10.16L98.06 10.68L92.03 10.68L92.03 10.86L92.03 10.86Q92.03 12.30 92.86 13.25L92.86 13.25L92.86 13.25Q93.68 14.21 94.93 14.21L94.93 14.21L94.93 14.21Q95.68 14.21 96.25 13.94L96.25 13.94L96.25 13.94Q96.83 13.66 97.30 13.06L97.30 13.06L97.88 13.51L97.88 13.51Q96.85 15 94.89 15ZM94.72 7.03L94.72 7.03L94.72 7.03Q93.66 7.03 92.94 7.80L92.94 7.80L92.94 7.80Q92.22 8.58 92.06 9.88L92.06 9.88L97.13 9.88L97.13 9.78L97.13 9.78Q97.09 8.56 96.44 7.80L96.44 7.80L96.44 7.80Q95.78 7.03 94.72 7.03ZM108.22 14.84L107.22 14.84L107.22 14.84Q107.08 14.45 107.04 13.66L107.04 13.66L107.04 13.66Q106.55 14.30 105.79 14.65L105.79 14.65L105.79 14.65Q105.02 15 104.17 15L104.17 15L104.17 15Q102.95 15 102.20 14.32L102.20 14.32L102.20 14.32Q101.45 13.64 101.45 12.60L101.45 12.60L101.45 12.60Q101.45 11.37 102.47 10.65L102.47 10.65L102.47 10.65Q103.50 9.93 105.34 9.93L105.34 9.93L107.03 9.93L107.03 8.97L107.03 8.97Q107.03 8.06 106.47 7.54L106.47 7.54L106.47 7.54Q105.91 7.02 104.84 7.02L104.84 7.02L104.84 7.02Q103.87 7.02 103.23 7.52L103.23 7.52L103.23 7.52Q102.59 8.02 102.59 8.73L102.59 8.73L101.65 8.72L101.65 8.72Q101.65 7.71 102.59 6.97L102.59 6.97L102.59 6.97Q103.52 6.23 104.89 6.23L104.89 6.23L104.89 6.23Q106.30 6.23 107.12 6.94L107.12 6.94L107.12 6.94Q107.94 7.65 107.96 8.91L107.96 8.91L107.96 12.91L107.96 12.91Q107.96 14.14 108.22 14.75L108.22 14.75L108.22 14.84ZM104.28 14.17L104.28 14.17L104.28 14.17Q105.22 14.17 105.96 13.72L105.96 13.72L105.96 13.72Q106.70 13.27 107.03 12.51L107.03 12.51L107.03 10.65L105.36 10.65L105.36 10.65Q103.96 10.66 103.17 11.16L103.17 11.16L103.17 11.16Q102.38 11.66 102.38 12.52L102.38 12.52L102.38 12.52Q102.38 13.23 102.91 13.70L102.91 13.70L102.91 13.70Q103.44 14.17 104.28 14.17ZM116.38 6.34L116.36 7.19L116.36 7.19Q116.06 7.13 115.73 7.13L115.73 7.13L115.73 7.13Q114.85 7.13 114.25 7.62L114.25 7.62L114.25 7.62Q113.64 8.11 113.38 9.04L113.38 9.04L113.38 14.84L112.45 14.84L112.45 6.39L113.37 6.39L113.38 7.73L113.38 7.73Q114.13 6.23 115.77 6.23L115.77 6.23L115.77 6.23Q116.16 6.23 116.38 6.34L116.38 6.34ZM119.84 6.39L120.73 6.39L120.76 7.84L120.76 7.84Q121.23 7.05 121.95 6.64L121.95 6.64L121.95 6.64Q122.66 6.23 123.52 6.23L123.52 6.23L123.52 6.23Q124.88 6.23 125.54 7L125.54 7L125.54 7Q126.20 7.77 126.21 9.30L126.21 9.30L126.21 14.84L125.28 14.84L125.28 9.29L125.28 9.29Q125.27 8.16 124.80 7.60L124.80 7.60L124.80 7.60Q124.33 7.05 123.29 7.05L123.29 7.05L123.29 7.05Q122.42 7.05 121.75 7.59L121.75 7.59L121.75 7.59Q121.09 8.13 120.77 9.05L120.77 9.05L120.77 14.84L119.84 14.84L119.84 6.39ZM131.67 6.39L131.67 14.84L130.73 14.84L130.73 6.39L131.67 6.39ZM130.57 3.95L130.57 3.95L130.57 3.95Q130.57 3.68 130.74 3.50L130.74 3.50L130.74 3.50Q130.91 3.31 131.21 3.31L131.21 3.31L131.21 3.31Q131.51 3.31 131.68 3.50L131.68 3.50L131.68 3.50Q131.86 3.68 131.86 3.95L131.86 3.95L131.86 3.95Q131.86 4.21 131.68 4.39L131.68 4.39L131.68 4.39Q131.51 4.57 131.21 4.57L131.21 4.57L131.21 4.57Q130.91 4.57 130.74 4.39L130.74 4.39L130.74 4.39Q130.57 4.21 130.57 3.95ZM136.21 6.39L137.10 6.39L137.13 7.84L137.13 7.84Q137.61 7.05 138.32 6.64L138.32 6.64L138.32 6.64Q139.03 6.23 139.89 6.23L139.89 6.23L139.89 6.23Q141.25 6.23 141.91 7L141.91 7L141.91 7Q142.58 7.77 142.59 9.30L142.59 9.30L142.59 14.84L141.66 14.84L141.66 9.29L141.66 9.29Q141.65 8.16 141.18 7.60L141.18 7.60L141.18 7.60Q140.70 7.05 139.66 7.05L139.66 7.05L139.66 7.05Q138.80 7.05 138.13 7.59L138.13 7.59L138.13 7.59Q137.46 8.13 137.14 9.05L137.14 9.05L137.14 14.84L136.21 14.84L136.21 6.39ZM146.63 10.66L146.63 10.54L146.63 10.54Q146.63 8.55 147.50 7.39L147.50 7.39L147.50 7.39Q148.38 6.23 149.89 6.23L149.89 6.23L149.89 6.23Q151.62 6.23 152.52 7.61L152.52 7.61L152.56 6.39L153.44 6.39L153.44 14.67L153.44 14.67Q153.44 16.30 152.52 17.26L152.52 17.26L152.52 17.26Q151.61 18.21 150.05 18.21L150.05 18.21L150.05 18.21Q149.16 18.21 148.36 17.82L148.36 17.82L148.36 17.82Q147.56 17.42 147.10 16.77L147.10 16.77L147.63 16.20L147.63 16.20Q148.62 17.42 149.98 17.42L149.98 17.42L149.98 17.42Q151.16 17.42 151.81 16.73L151.81 16.73L151.81 16.73Q152.47 16.04 152.49 14.81L152.49 14.81L152.49 13.75L152.49 13.75Q151.59 15 149.88 15L149.88 15L149.88 15Q148.41 15 147.52 13.83L147.52 13.83L147.52 13.83Q146.63 12.66 146.63 10.66L146.63 10.66ZM147.57 10.70L147.57 10.70L147.57 10.70Q147.57 12.32 148.22 13.25L148.22 13.25L148.22 13.25Q148.87 14.19 150.05 14.19L150.05 14.19L150.05 14.19Q151.77 14.19 152.49 12.64L152.49 12.64L152.49 8.71L152.49 8.71Q152.16 7.90 151.55 7.47L151.55 7.47L151.55 7.47Q150.93 7.05 150.06 7.05L150.06 7.05L150.06 7.05Q148.88 7.05 148.23 7.97L148.23 7.97L148.23 7.97Q147.57 8.90 147.57 10.70ZM165.59 8.72L165.70 8.64L165.70 8.64Q165.02 7.82 164.71 7.18L164.71 7.18L164.71 7.18Q164.41 6.53 164.41 5.90L164.41 5.90L164.41 5.90Q164.41 4.70 165.12 4.01L165.12 4.01L165.12 4.01Q165.83 3.31 167.02 3.31L167.02 3.31L167.02 3.31Q168.11 3.31 168.78 3.94L168.78 3.94L168.78 3.94Q169.45 4.57 169.45 5.54L169.45 5.54L169.45 5.54Q169.45 6.66 168.16 7.75L168.16 7.75L166.91 8.72L170.03 12.36L170.03 12.36Q170.74 11.21 170.74 9.76L170.74 9.76L171.61 9.76L171.61 9.76Q171.61 11.70 170.61 13.03L170.61 13.03L172.16 14.84L171.04 14.84L170.05 13.70L170.05 13.70Q169.44 14.31 168.63 14.66L168.63 14.66L168.63 14.66Q167.82 15 166.92 15L166.92 15L166.92 15Q165.30 15 164.34 14.17L164.34 14.17L164.34 14.17Q163.39 13.34 163.39 11.95L163.39 11.95L163.39 11.95Q163.39 11.12 163.88 10.38L163.88 10.38L163.88 10.38Q164.37 9.64 165.59 8.72L165.59 8.72ZM166.92 14.21L166.92 14.21L166.92 14.21Q167.63 14.21 168.30 13.91L168.30 13.91L168.30 13.91Q168.97 13.61 169.50 13.05L169.50 13.05L166.32 9.37L166.21 9.25L165.85 9.52L165.85 9.52Q164.32 10.77 164.32 11.95L164.32 11.95L164.32 11.95Q164.32 12.97 165.02 13.59L165.02 13.59L165.02 13.59Q165.73 14.21 166.92 14.21ZM165.34 5.87L165.34 5.87L165.34 5.87Q165.34 6.82 166.40 8.12L166.40 8.12L167.42 7.34L167.42 7.34Q167.92 6.98 168.24 6.55L168.24 6.55L168.24 6.55Q168.56 6.12 168.56 5.54L168.56 5.54L168.56 5.54Q168.56 4.93 168.14 4.52L168.14 4.52L168.14 4.52Q167.72 4.11 167.02 4.11L167.02 4.11L167.02 4.11Q166.25 4.11 165.80 4.60L165.80 4.60L165.80 4.60Q165.34 5.09 165.34 5.87ZM184.83 14.84L181.72 14.84L181.72 3.47L184.90 3.47L184.90 3.47Q186.30 3.47 187.41 4.11L187.41 4.11L187.41 4.11Q188.52 4.74 189.14 5.93L189.14 5.93L189.14 5.93Q189.76 7.12 189.76 8.63L189.76 8.63L189.76 9.68L189.76 9.68Q189.76 11.20 189.14 12.38L189.14 12.38L189.14 12.38Q188.52 13.56 187.40 14.20L187.40 14.20L187.40 14.20Q186.28 14.84 184.83 14.84L184.83 14.84ZM184.91 4.29L182.68 4.29L182.68 14.03L184.84 14.03L184.84 14.03Q186.63 14.03 187.72 12.84L187.72 12.84L187.72 12.84Q188.80 11.65 188.80 9.62L188.80 9.62L188.80 8.62L188.80 8.62Q188.80 6.66 187.73 5.48L187.73 5.48L187.73 5.48Q186.66 4.30 184.91 4.29L184.91 4.29ZM200.31 14.84L199.31 14.84L199.31 14.84Q199.17 14.45 199.13 13.66L199.13 13.66L199.13 13.66Q198.64 14.30 197.88 14.65L197.88 14.65L197.88 14.65Q197.12 15 196.27 15L196.27 15L196.27 15Q195.05 15 194.29 14.32L194.29 14.32L194.29 14.32Q193.54 13.64 193.54 12.60L193.54 12.60L193.54 12.60Q193.54 11.37 194.57 10.65L194.57 10.65L194.57 10.65Q195.59 9.93 197.43 9.93L197.43 9.93L199.13 9.93L199.13 8.97L199.13 8.97Q199.13 8.06 198.57 7.54L198.57 7.54L198.57 7.54Q198.01 7.02 196.94 7.02L196.94 7.02L196.94 7.02Q195.96 7.02 195.32 7.52L195.32 7.52L195.32 7.52Q194.68 8.02 194.68 8.73L194.68 8.73L193.74 8.72L193.74 8.72Q193.74 7.71 194.68 6.97L194.68 6.97L194.68 6.97Q195.62 6.23 196.98 6.23L196.98 6.23L196.98 6.23Q198.40 6.23 199.21 6.94L199.21 6.94L199.21 6.94Q200.03 7.65 200.05 8.91L200.05 8.91L200.05 12.91L200.05 12.91Q200.05 14.14 200.31 14.75L200.31 14.75L200.31 14.84ZM196.38 14.17L196.38 14.17L196.38 14.17Q197.31 14.17 198.05 13.72L198.05 13.72L198.05 13.72Q198.79 13.27 199.13 12.51L199.13 12.51L199.13 10.65L197.45 10.65L197.45 10.65Q196.05 10.66 195.27 11.16L195.27 11.16L195.27 11.16Q194.48 11.66 194.48 12.52L194.48 12.52L194.48 12.52Q194.48 13.23 195.00 13.70L195.00 13.70L195.00 13.70Q195.53 14.17 196.38 14.17ZM205.06 4.23L206 4.23L206 6.39L207.75 6.39L207.75 7.16L206 7.16L206 12.79L206 12.79Q206 13.49 206.25 13.84L206.25 13.84L206.25 13.84Q206.51 14.18 207.10 14.18L207.10 14.18L207.10 14.18Q207.34 14.18 207.86 14.10L207.86 14.10L207.90 14.87L207.90 14.87Q207.53 15 206.90 15L206.90 15L206.90 15Q205.94 15 205.50 14.44L205.50 14.44L205.50 14.44Q205.06 13.88 205.06 12.80L205.06 12.80L205.06 7.16L203.51 7.16L203.51 6.39L205.06 6.39L205.06 4.23ZM218.02 14.84L217.02 14.84L217.02 14.84Q216.88 14.45 216.84 13.66L216.84 13.66L216.84 13.66Q216.35 14.30 215.59 14.65L215.59 14.65L215.59 14.65Q214.83 15 213.98 15L213.98 15L213.98 15Q212.76 15 212.00 14.32L212.00 14.32L212.00 14.32Q211.25 13.64 211.25 12.60L211.25 12.60L211.25 12.60Q211.25 11.37 212.28 10.65L212.28 10.65L212.28 10.65Q213.30 9.93 215.14 9.93L215.14 9.93L216.84 9.93L216.84 8.97L216.84 8.97Q216.84 8.06 216.28 7.54L216.28 7.54L216.28 7.54Q215.72 7.02 214.65 7.02L214.65 7.02L214.65 7.02Q213.67 7.02 213.03 7.52L213.03 7.52L213.03 7.52Q212.39 8.02 212.39 8.73L212.39 8.73L211.45 8.72L211.45 8.72Q211.45 7.71 212.39 6.97L212.39 6.97L212.39 6.97Q213.33 6.23 214.70 6.23L214.70 6.23L214.70 6.23Q216.11 6.23 216.93 6.94L216.93 6.94L216.93 6.94Q217.74 7.65 217.77 8.91L217.77 8.91L217.77 12.91L217.77 12.91Q217.77 14.14 218.02 14.75L218.02 14.75L218.02 14.84ZM214.09 14.17L214.09 14.17L214.09 14.17Q215.02 14.17 215.76 13.72L215.76 13.72L215.76 13.72Q216.50 13.27 216.84 12.51L216.84 12.51L216.84 10.65L215.16 10.65L215.16 10.65Q213.77 10.66 212.98 11.16L212.98 11.16L212.98 11.16Q212.19 11.66 212.19 12.52L212.19 12.52L212.19 12.52Q212.19 13.23 212.71 13.70L212.71 13.70L212.71 13.70Q213.24 14.17 214.09 14.17ZM234.65 8.58L234.65 9.39L229.33 9.39L229.33 14.03L235.45 14.03L235.45 14.84L228.37 14.84L228.37 3.47L235.41 3.47L235.41 4.29L229.33 4.29L229.33 8.58L234.65 8.58ZM239.25 6.39L240.14 6.39L240.17 7.84L240.17 7.84Q240.65 7.05 241.36 6.64L241.36 6.64L241.36 6.64Q242.07 6.23 242.93 6.23L242.93 6.23L242.93 6.23Q244.29 6.23 244.95 7L244.95 7L244.95 7Q245.62 7.77 245.63 9.30L245.63 9.30L245.63 14.84L244.70 14.84L244.70 9.29L244.70 9.29Q244.69 8.16 244.21 7.60L244.21 7.60L244.21 7.60Q243.74 7.05 242.70 7.05L242.70 7.05L242.70 7.05Q241.84 7.05 241.17 7.59L241.17 7.59L241.17 7.59Q240.50 8.13 240.18 9.05L240.18 9.05L240.18 14.84L239.25 14.84L239.25 6.39ZM249.66 10.66L249.66 10.54L249.66 10.54Q249.66 8.55 250.54 7.39L250.54 7.39L250.54 7.39Q251.42 6.23 252.93 6.23L252.93 6.23L252.93 6.23Q254.66 6.23 255.55 7.61L255.55 7.61L255.60 6.39L256.48 6.39L256.48 14.67L256.48 14.67Q256.48 16.30 255.56 17.26L255.56 17.26L255.56 17.26Q254.65 18.21 253.09 18.21L253.09 18.21L253.09 18.21Q252.20 18.21 251.40 17.82L251.40 17.82L251.40 17.82Q250.60 17.42 250.14 16.77L250.14 16.77L250.66 16.20L250.66 16.20Q251.66 17.42 253.02 17.42L253.02 17.42L253.02 17.42Q254.20 17.42 254.85 16.73L254.85 16.73L254.85 16.73Q255.51 16.04 255.53 14.81L255.53 14.81L255.53 13.75L255.53 13.75Q254.63 15 252.91 15L252.91 15L252.91 15Q251.45 15 250.55 13.83L250.55 13.83L250.55 13.83Q249.66 12.66 249.66 10.66L249.66 10.66ZM250.61 10.70L250.61 10.70L250.61 10.70Q250.61 12.32 251.26 13.25L251.26 13.25L251.26 13.25Q251.91 14.19 253.09 14.19L253.09 14.19L253.09 14.19Q254.81 14.19 255.53 12.64L255.53 12.64L255.53 8.71L255.53 8.71Q255.20 7.90 254.59 7.47L254.59 7.47L254.59 7.47Q253.97 7.05 253.10 7.05L253.10 7.05L253.10 7.05Q251.92 7.05 251.27 7.97L251.27 7.97L251.27 7.97Q250.61 8.90 250.61 10.70ZM261.96 6.39L261.96 14.84L261.02 14.84L261.02 6.39L261.96 6.39ZM260.86 3.95L260.86 3.95L260.86 3.95Q260.86 3.68 261.03 3.50L261.03 3.50L261.03 3.50Q261.20 3.31 261.50 3.31L261.50 3.31L261.50 3.31Q261.80 3.31 261.97 3.50L261.97 3.50L261.97 3.50Q262.15 3.68 262.15 3.95L262.15 3.95L262.15 3.95Q262.15 4.21 261.97 4.39L261.97 4.39L261.97 4.39Q261.80 4.57 261.50 4.57L261.50 4.57L261.50 4.57Q261.20 4.57 261.03 4.39L261.03 4.39L261.03 4.39Q260.86 4.21 260.86 3.95ZM266.50 6.39L267.39 6.39L267.42 7.84L267.42 7.84Q267.90 7.05 268.61 6.64L268.61 6.64L268.61 6.64Q269.32 6.23 270.18 6.23L270.18 6.23L270.18 6.23Q271.54 6.23 272.20 7L272.20 7L272.20 7Q272.87 7.77 272.88 9.30L272.88 9.30L272.88 14.84L271.95 14.84L271.95 9.29L271.95 9.29Q271.94 8.16 271.46 7.60L271.46 7.60L271.46 7.60Q270.99 7.05 269.95 7.05L269.95 7.05L269.95 7.05Q269.09 7.05 268.42 7.59L268.42 7.59L268.42 7.59Q267.75 8.13 267.43 9.05L267.43 9.05L267.43 14.84L266.50 14.84L266.50 6.39ZM280.56 15L280.56 15L280.56 15Q279.48 15 278.61 14.47L278.61 14.47L278.61 14.47Q277.74 13.94 277.26 12.99L277.26 12.99L277.26 12.99Q276.77 12.04 276.77 10.86L276.77 10.86L276.77 10.52L276.77 10.52Q276.77 9.30 277.25 8.33L277.25 8.33L277.25 8.33Q277.72 7.35 278.56 6.79L278.56 6.79L278.56 6.79Q279.41 6.23 280.39 6.23L280.39 6.23L280.39 6.23Q281.93 6.23 282.83 7.29L282.83 7.29L282.83 7.29Q283.73 8.34 283.73 10.16L283.73 10.16L283.73 10.68L277.70 10.68L277.70 10.86L277.70 10.86Q277.70 12.30 278.53 13.25L278.53 13.25L278.53 13.25Q279.35 14.21 280.60 14.21L280.60 14.21L280.60 14.21Q281.35 14.21 281.93 13.94L281.93 13.94L281.93 13.94Q282.50 13.66 282.97 13.06L282.97 13.06L283.55 13.51L283.55 13.51Q282.52 15 280.56 15ZM280.39 7.03L280.39 7.03L280.39 7.03Q279.34 7.03 278.61 7.80L278.61 7.80L278.61 7.80Q277.89 8.58 277.73 9.88L277.73 9.88L282.80 9.88L282.80 9.78L282.80 9.78Q282.77 8.56 282.11 7.80L282.11 7.80L282.11 7.80Q281.45 7.03 280.39 7.03ZM290.83 15L290.83 15L290.83 15Q289.75 15 288.88 14.47L288.88 14.47L288.88 14.47Q288.01 13.94 287.52 12.99L287.52 12.99L287.52 12.99Q287.04 12.04 287.04 10.86L287.04 10.86L287.04 10.52L287.04 10.52Q287.04 9.30 287.51 8.33L287.51 8.33L287.51 8.33Q287.98 7.35 288.83 6.79L288.83 6.79L288.83 6.79Q289.67 6.23 290.66 6.23L290.66 6.23L290.66 6.23Q292.20 6.23 293.10 7.29L293.10 7.29L293.10 7.29Q294 8.34 294 10.16L294 10.16L294 10.68L287.97 10.68L287.97 10.86L287.97 10.86Q287.97 12.30 288.79 13.25L288.79 13.25L288.79 13.25Q289.62 14.21 290.87 14.21L290.87 14.21L290.87 14.21Q291.62 14.21 292.19 13.94L292.19 13.94L292.19 13.94Q292.77 13.66 293.23 13.06L293.23 13.06L293.82 13.51L293.82 13.51Q292.79 15 290.83 15ZM290.66 7.03L290.66 7.03L290.66 7.03Q289.60 7.03 288.88 7.80L288.88 7.80L288.88 7.80Q288.16 8.58 288 9.88L288 9.88L293.07 9.88L293.07 9.78L293.07 9.78Q293.03 8.56 292.38 7.80L292.38 7.80L292.38 7.80Q291.72 7.03 290.66 7.03ZM301.75 6.34L301.73 7.19L301.73 7.19Q301.43 7.13 301.09 7.13L301.09 7.13L301.09 7.13Q300.22 7.13 299.61 7.62L299.61 7.62L299.61 7.62Q299.01 8.11 298.75 9.04L298.75 9.04L298.75 14.84L297.82 14.84L297.82 6.39L298.73 6.39L298.75 7.73L298.75 7.73Q299.49 6.23 301.13 6.23L301.13 6.23L301.13 6.23Q301.52 6.23 301.75 6.34L301.75 6.34ZM306.25 6.39L306.25 14.84L305.31 14.84L305.31 6.39L306.25 6.39ZM305.15 3.95L305.15 3.95L305.15 3.95Q305.15 3.68 305.32 3.50L305.32 3.50L305.32 3.50Q305.49 3.31 305.79 3.31L305.79 3.31L305.79 3.31Q306.09 3.31 306.26 3.50L306.26 3.50L306.26 3.50Q306.44 3.68 306.44 3.95L306.44 3.95L306.44 3.95Q306.44 4.21 306.26 4.39L306.26 4.39L306.26 4.39Q306.09 4.57 305.79 4.57L305.79 4.57L305.79 4.57Q305.49 4.57 305.32 4.39L305.32 4.39L305.32 4.39Q305.15 4.21 305.15 3.95ZM310.79 6.39L311.68 6.39L311.71 7.84L311.71 7.84Q312.19 7.05 312.90 6.64L312.90 6.64L312.90 6.64Q313.61 6.23 314.47 6.23L314.47 6.23L314.47 6.23Q315.83 6.23 316.49 7L316.49 7L316.49 7Q317.16 7.77 317.16 9.30L317.16 9.30L317.16 14.84L316.23 14.84L316.23 9.29L316.23 9.29Q316.23 8.16 315.75 7.60L315.75 7.60L315.75 7.60Q315.28 7.05 314.24 7.05L314.24 7.05L314.24 7.05Q313.38 7.05 312.71 7.59L312.71 7.59L312.71 7.59Q312.04 8.13 311.72 9.05L311.72 9.05L311.72 14.84L310.79 14.84L310.79 6.39ZM321.20 10.66L321.20 10.54L321.20 10.54Q321.20 8.55 322.08 7.39L322.08 7.39L322.08 7.39Q322.96 6.23 324.47 6.23L324.47 6.23L324.47 6.23Q326.20 6.23 327.09 7.61L327.09 7.61L327.14 6.39L328.02 6.39L328.02 14.67L328.02 14.67Q328.02 16.30 327.10 17.26L327.10 17.26L327.10 17.26Q326.19 18.21 324.63 18.21L324.63 18.21L324.63 18.21Q323.74 18.21 322.94 17.82L322.94 17.82L322.94 17.82Q322.14 17.42 321.68 16.77L321.68 16.77L322.20 16.20L322.20 16.20Q323.20 17.42 324.56 17.42L324.56 17.42L324.56 17.42Q325.73 17.42 326.39 16.73L326.39 16.73L326.39 16.73Q327.05 16.04 327.07 14.81L327.07 14.81L327.07 13.75L327.07 13.75Q326.17 15 324.45 15L324.45 15L324.45 15Q322.98 15 322.09 13.83L322.09 13.83L322.09 13.83Q321.20 12.66 321.20 10.66L321.20 10.66ZM322.15 10.70L322.15 10.70L322.15 10.70Q322.15 12.32 322.80 13.25L322.80 13.25L322.80 13.25Q323.45 14.19 324.63 14.19L324.63 14.19L324.63 14.19Q326.35 14.19 327.07 12.64L327.07 12.64L327.07 8.71L327.07 8.71Q326.74 7.90 326.13 7.47L326.13 7.47L326.13 7.47Q325.51 7.05 324.64 7.05L324.64 7.05L324.64 7.05Q323.46 7.05 322.80 7.97L322.80 7.97L322.80 7.97Q322.15 8.90 322.15 10.70Z" transform="rotate(0 164.72999334335327 10.524999618530273)"></path><defs id="SvgjsDefs2624"></defs></svg></g></svg>